<?xml version="1.0" encoding="UTF-8" standalone="no"?>
<!-- Created with Inkscape (http://www.inkscape.org/) -->

<svg
   width="480mm"
   height="264.58301mm"
   viewBox="0 0 479.99999 264.583"
   version="1.1"
   id="svg1119"
   inkscape:version="1.3.2 (091e20e, 2023-11-25)"
   sodipodi:docname="logo-ufsj.svg"
   xml:space="preserve"
   xmlns:inkscape="http://www.inkscape.org/namespaces/inkscape"
   xmlns:sodipodi="http://sodipodi.sourceforge.net/DTD/sodipodi-0.dtd"
   xmlns="http://www.w3.org/2000/svg"
   xmlns:svg="http://www.w3.org/2000/svg"
   xmlns:rdf="http://www.w3.org/1999/02/22-rdf-syntax-ns#"
   xmlns:cc="http://creativecommons.org/ns#"
   xmlns:dc="http://purl.org/dc/elements/1.1/"><defs
     id="defs1113" /><sodipodi:namedview
     id="base"
     pagecolor="#7d7d7d"
     bordercolor="#666666"
     borderopacity="1.0"
     inkscape:pageopacity="0"
     inkscape:pageshadow="2"
     inkscape:zoom="0.29548976"
     inkscape:cx="1353.6848"
     inkscape:cy="208.12904"
     inkscape:document-units="mm"
     inkscape:current-layer="layer1"
     showgrid="false"
     inkscape:window-width="1464"
     inkscape:window-height="916"
     inkscape:window-x="54"
     inkscape:window-y="38"
     inkscape:window-maximized="1"
     inkscape:pagecheckerboard="0"
     showborder="false"
     inkscape:showpageshadow="0"
     inkscape:deskcolor="#f3f3f3" /><metadata
     id="metadata1116"><rdf:RDF><cc:Work
         rdf:about=""><dc:format>image/svg+xml</dc:format><dc:type
           rdf:resource="http://purl.org/dc/dcmitype/StillImage" /></cc:Work></rdf:RDF></metadata><g
     inkscape:label="Layer 1"
     inkscape:groupmode="layer"
     id="layer1"><path
       style="fill:#b8b9b9;fill-opacity:1;stroke-width:1.56749"
       d="m 99.799161,244.46632 v -16.17456 h 2.211909 c 1.84727,0 2.21186,0.0733 2.21186,0.4443 0,0.31849 0.13644,0.38517 0.4837,0.23426 3.54214,-1.539 6.67626,-1.62911 9.67281,-0.27769 3.83593,1.72962 5.87311,5.28299 5.87311,10.24438 0,4.91032 -1.89303,8.25782 -5.74023,10.15084 -1.73743,0.85483 -2.01933,0.90831 -4.75485,0.90168 -2.46407,-0.004 -3.08574,-0.10089 -4.07208,-0.6221 -0.64018,-0.33823 -1.23118,-0.61504 -1.31326,-0.61504 -0.0816,0 -0.14915,2.67503 -0.14915,5.94444 v 5.94457 h -2.21187 -2.211909 z m 12.338059,1.29773 c 2.45652,-1.25439 3.51178,-3.296 3.52885,-6.82752 0.009,-2.18669 -0.0798,-2.66473 -0.74472,-3.94258 -1.72707,-3.31868 -5.89518,-4.54191 -9.52335,-2.79488 l -1.17507,0.56582 v 6.17164 6.17168 l 1.17507,0.54919 c 1.85412,0.86659 1.90755,0.87755 3.80176,0.78078 1.12581,-0.0579 2.22314,-0.30928 2.93746,-0.67413 z m 269.12688,-1.29773 v -16.17456 h 2.21187 c 1.84727,0 2.21191,0.0733 2.21191,0.4443 0,0.31849 0.13643,0.38517 0.4837,0.23426 3.54214,-1.539 6.67626,-1.62911 9.67276,-0.27769 3.83597,1.72962 5.87315,5.28299 5.87315,10.24438 0,4.91032 -1.89302,8.25782 -5.74027,10.15084 -1.73743,0.85483 -2.01933,0.90831 -4.7549,0.90168 -2.46402,-0.004 -3.08564,-0.10089 -4.07199,-0.6221 -0.64022,-0.33823 -1.23126,-0.61504 -1.31334,-0.61504 -0.0825,0 -0.14916,2.67503 -0.14916,5.94444 v 5.94457 h -2.2119 -2.21191 z m 12.33802,1.29773 c 2.45652,-1.25439 3.51178,-3.296 3.52885,-6.82752 0.009,-2.18669 -0.0798,-2.66473 -0.74472,-3.94258 -1.72707,-3.31868 -5.89518,-4.54191 -9.5233,-2.79488 l -1.17507,0.56582 v 6.17164 6.17168 l 1.17507,0.54919 c 1.85407,0.86659 1.9075,0.87755 3.80171,0.78078 1.12585,-0.0579 2.22318,-0.30928 2.93746,-0.67413 z M 21.629431,250.1114 c -3.973636,-0.47225 -7.887435,-2.50745 -10.773037,-5.60248 -3.0152781,-3.23419 -4.2580813,-6.50232 -4.2743127,-11.24042 -0.013161,-4.86856 1.5328636,-8.41171 5.2037607,-11.89875 3.40128,-3.2309 7.349516,-4.72533 12.50875,-4.73463 3.381627,-0.009 5.617049,0.34612 8.407543,1.32462 1.091237,0.38297 2.201819,0.76332 2.467928,0.84583 0.415876,0.12854 0.483697,0.51529 0.483697,2.74847 v 2.59835 l -1.646045,-0.83096 c -3.915642,-1.9766 -8.960159,-2.83823 -12.389866,-2.11623 -11.114555,2.33969 -13.9407586,16.16183 -4.616182,22.57729 1.984888,1.36573 4.355558,2.02214 7.316132,2.02565 3.296916,0.004 5.427623,-0.53472 8.926072,-2.25688 l 2.70517,-1.33168 -0.07896,2.63213 -0.07896,2.63199 -2.292364,0.92783 c -3.808909,1.54159 -8.06813,2.1515 -11.870371,1.69987 z m 21.424381,-0.25224 c -3.065815,-0.92314 -4.574243,-3.98496 -3.376142,-6.85314 0.965113,-2.31044 2.712539,-3.49942 7.995615,-5.44035 l 3.878704,-1.42495 -0.05791,-1.21705 c -0.112304,-2.34808 -1.701846,-3.43378 -4.620394,-3.15544 -1.882191,0.17943 -3.912307,0.88905 -5.443591,1.90233 -0.585166,0.38736 -1.128789,0.70409 -1.208103,0.70409 -0.0794,0 -0.14389,-0.93063 -0.14389,-2.0681 v -2.06807 l 1.451619,-0.83043 c 3.279587,-1.87632 8.269707,-2.16458 11.23322,-0.64895 1.231266,0.62964 1.657451,1.04096 2.2295,2.15163 0.688609,1.3369 0.710938,1.55274 0.845528,8.18285 0.106162,5.25043 0.226363,6.91578 0.522916,7.27261 0.416753,0.50164 1.229379,0.38999 1.987256,-0.2733 0.685801,-0.60026 0.807669,-0.46927 0.807669,0.86825 0,1.18577 -0.0658,1.29215 -1.280048,2.0621 -2.297848,1.45723 -5.13594,1.42152 -5.854555,-0.0733 -0.418508,-0.87057 -0.546254,-0.90049 -1.37283,-0.32155 -1.753304,1.22815 -5.556598,1.84481 -7.594084,1.23126 z m 5.783312,-3.18019 c 0.76709,-0.22811 1.726852,-0.67549 2.132945,-0.99494 0.727827,-0.57249 0.737215,-0.62276 0.660138,-3.52578 -0.09169,-3.46024 0.03948,-3.38632 -3.485025,-1.92917 -2.77751,1.1476 -4.200087,2.50548 -4.187848,3.9975 0.0088,1.34076 0.491682,1.98532 1.837708,2.46547 1.347387,0.48071 1.380551,0.48019 3.042082,-0.009 z m 80.873666,3.17391 c -2.22972,-0.46479 -3.77289,-1.75339 -4.79902,-4.00741 -0.59785,-1.31313 -0.63277,-1.7652 -0.73239,-9.46632 l -0.10485,-8.08726 h 2.22709 2.22704 l 0.0816,7.53429 c 0.0733,6.78537 0.13468,7.64112 0.61464,8.60847 1.08356,2.18339 4.51393,2.73162 7.20892,1.15221 2.12926,-1.2478 2.07341,-0.98885 2.07341,-9.61481 v -7.68016 h 2.21191 2.21187 v 10.78304 10.78304 h -2.21187 -2.21191 v -1.24416 c 0,-0.68431 -0.0698,-1.24425 -0.15441,-1.24425 -0.0847,0 -0.61377,0.36762 -1.17507,0.81705 -0.56139,0.44931 -1.46149,1.00008 -2.00024,1.22394 -1.29032,0.53612 -3.97504,0.75336 -5.46698,0.44233 z m 21.49537,0.009 c -0.54319,-0.13819 -1.69404,-0.51564 -2.55756,-0.83869 l -1.56997,-0.5874 v -2.35655 -2.35658 l 1.17507,0.6826 c 3.40632,1.97861 7.15263,2.42647 8.63649,1.03245 1.51119,-1.41968 0.70287,-2.64165 -3.09086,-4.67203 -5.17656,-2.77053 -6.4442,-4.17732 -6.4442,-7.15158 0,-2.4184 0.93406,-3.92845 3.17961,-5.14015 0.94911,-0.51217 1.53717,-0.59433 4.14732,-0.57973 2.56158,0.0132 3.30305,0.12371 4.70028,0.69186 l 1.65894,0.67479 0.0807,2.15378 0.0807,2.15383 -1.04872,-0.53406 c -2.68868,-1.36959 -6.52386,-1.86083 -7.7611,-0.99424 -0.91352,0.63987 -0.79814,1.77142 0.28778,2.82409 0.4962,0.48124 2.17884,1.55879 3.73881,2.39511 3.64791,1.95536 4.72879,2.79637 5.34919,4.16205 1.407,3.09718 -0.0535,6.64516 -3.3189,8.06335 -1.17845,0.51177 -5.77454,0.75108 -7.24423,0.37683 z m 71.37967,-0.0671 c -1.33125,-0.44983 -2.6495,-1.87627 -3.04191,-3.2913 -0.19346,-0.69826 -0.40228,-4.03628 -0.49515,-7.91262 l -0.16056,-6.70482 h -1.7587 c -0.96739,0 -1.75883,-0.0956 -1.75883,-0.21276 0,-0.2619 7.39931,-8.46177 7.74701,-8.58504 0.13775,-0.05 0.28559,1.07106 0.32946,2.48833 l 0.0798,2.57703 3.24875,0.0776 3.24879,0.0777 v 1.78844 1.78836 h -3.31793 -3.31784 l 0.002,5.73716 c 0.002,6.34054 0.19215,7.5582 1.25654,8.04326 0.96963,0.4418 3.70981,0.38517 4.54818,-0.0943 0.37991,-0.21759 0.78451,-0.39964 0.89861,-0.40491 0.11406,-0.004 0.2075,0.89602 0.2075,2.00323 0,2.01283 -9e-5,2.01309 -0.89861,2.37352 -1.21556,0.48773 -5.63495,0.65031 -6.81712,0.25093 z m 18.22222,-0.0562 c -1.97006,-0.54818 -3.45449,-1.42626 -4.96542,-2.93723 -6.23494,-6.23494 -3.16395,-16.74617 5.48838,-18.78528 4.85272,-1.14361 10.35242,1.34414 12.68905,5.73984 3.98811,7.50244 -1.57879,16.47028 -10.15164,16.35359 -0.99889,-0.0132 -2.37602,-0.18031 -3.06037,-0.37113 z m 5.84767,-4.13551 c 1.39024,-0.66448 2.97053,-2.28705 3.60772,-3.70419 1.14327,-2.54259 0.51458,-6.08311 -1.42433,-8.02211 -3.37167,-3.37167 -8.43996,-2.70846 -10.79344,1.41231 -1.5798,2.7661 -1.37221,5.744 0.57179,8.20338 2.05341,2.59778 5.25847,3.43931 8.03826,2.11061 z m 51.32018,4.25585 c -3.06586,-0.92313 -4.57429,-3.985 -3.37619,-6.85319 0.96511,-2.31039 2.71254,-3.49932 7.99561,-5.4403 l 3.87871,-1.42499 -0.0579,-1.21701 c -0.1123,-2.34807 -1.7018,-3.43383 -4.62035,-3.15544 -1.88219,0.17943 -3.91239,0.88905 -5.44363,1.90233 -0.58513,0.38736 -1.12879,0.70405 -1.20806,0.70405 -0.0794,0 -0.14389,-0.93059 -0.14389,-2.06806 v -2.06649 l 1.45157,-0.83043 c 3.27963,-1.87631 8.26971,-2.16462 11.23327,-0.649 1.23126,0.6297 1.65745,1.04105 2.22945,2.15164 0.68861,1.3369 0.71094,1.55278 0.84557,8.18289 0.10661,5.25043 0.22637,6.91574 0.52283,7.27265 0.41676,0.50156 1.22947,0.38956 1.98735,-0.2733 0.68575,-0.60025 0.80762,-0.46926 0.80762,0.8683 0,1.18581 -0.0658,1.29211 -1.28009,2.06209 -2.2978,1.45719 -5.13585,1.42153 -5.85455,-0.0733 -0.41851,-0.87053 -0.54621,-0.90049 -1.3727,-0.32112 -1.7534,1.22811 -5.55673,1.84477 -7.59422,1.23127 z m 5.78331,-3.18023 c 0.767,-0.22812 1.72681,-0.67545 2.1329,-0.9949 0.72783,-0.57249 0.73721,-0.62276 0.66014,-3.52582 -0.0917,-3.4602 0.0395,-3.38628 -3.48503,-1.92913 -2.77755,1.14761 -4.20004,2.50548 -4.18785,3.99745 0.009,1.34081 0.49169,1.98537 1.83771,2.46543 1.34743,0.48076 1.38055,0.48023 3.04213,-0.009 z m 33.20157,3.18023 c -3.06594,-0.92313 -4.57433,-3.985 -3.37623,-6.85319 0.96512,-2.31039 2.71254,-3.49932 7.99562,-5.4403 l 3.8787,-1.42499 -0.0579,-1.21701 c -0.1123,-2.34807 -1.7018,-3.43383 -4.62034,-3.15544 -1.8822,0.17943 -3.9124,0.88905 -5.44364,1.90233 -0.58512,0.38736 -1.12874,0.70405 -1.20806,0.70405 -0.0794,0 -0.14433,-0.93059 -0.14433,-2.06806 v -2.06649 l 1.45162,-0.83043 c 3.27954,-1.87631 8.26971,-2.16462 11.23327,-0.649 1.23122,0.6297 1.65745,1.04105 2.22945,2.15164 0.68861,1.3369 0.7109,1.55278 0.84548,8.18289 0.10661,5.25043 0.22637,6.91574 0.52292,7.27265 0.41675,0.50156 1.22942,0.38956 1.98726,-0.2733 0.68584,-0.60025 0.80771,-0.46926 0.80771,0.8683 0,1.18581 -0.0658,1.29211 -1.28009,2.06209 -2.29785,1.45719 -5.13594,1.42153 -5.85456,-0.0733 -0.4185,-0.87053 -0.54621,-0.90049 -1.37274,-0.32112 -1.75339,1.22811 -5.55673,1.84477 -7.59417,1.23127 z m 5.78323,-3.18023 c 0.76704,-0.22812 1.7268,-0.67545 2.13294,-0.9949 0.72779,-0.57249 0.73717,-0.62276 0.6601,-3.52582 -0.0917,-3.4602 0.0395,-3.38628 -3.48503,-1.92913 -2.77751,1.14761 -4.20009,2.50548 -4.1878,3.99745 0.009,1.34081 0.4912,1.98537 1.83771,2.46543 1.34734,0.48076 1.3805,0.48023 3.04208,-0.009 z m 19.71885,3.05989 c -1.97011,-0.54818 -3.45449,-1.42626 -4.96542,-2.93723 -6.23503,-6.23494 -3.164,-16.74617 5.48838,-18.78528 4.85268,-1.14361 10.35238,1.34414 12.689,5.73984 3.98807,7.50244 -1.57875,16.47028 -10.15163,16.35359 -0.99885,-0.0132 -2.37598,-0.18031 -3.06033,-0.37113 z m 5.84766,-4.13551 c 1.39025,-0.66448 2.97054,-2.28705 3.60769,-3.70419 1.14326,-2.54259 0.51462,-6.08311 -1.42442,-8.02211 -3.37163,-3.37167 -8.43988,-2.70846 -10.79331,1.41231 -1.5798,2.7661 -1.37226,5.744 0.57175,8.20338 2.05341,2.59778 5.25842,3.43931 8.03829,2.11061 z m 43.78195,4.1435 c -1.93593,-0.61386 -3.29591,-1.45741 -4.60351,-2.85538 -3.90915,-4.17911 -3.95749,-11.80136 -0.10177,-16.0691 2.12597,-2.35321 5.93101,-3.48362 9.60516,-2.85357 2.33978,0.4014 3.82479,1.19854 5.38525,2.89139 1.41394,1.53392 2.16155,3.20405 2.54733,5.69022 0.5345,3.44506 1.49255,3.05836 -7.78646,3.1425 l -8.08725,0.0733 0.093,0.82947 c 0.25839,2.31 2.03161,4.47962 4.2715,5.22675 2.50961,0.83697 5.34309,0.41193 8.91692,-1.33782 l 2.34035,-1.14586 v 2.1716 2.17172 l -2.00454,0.91857 c -1.10246,0.50515 -2.6639,1.05698 -3.46972,1.22618 -1.92448,0.40403 -5.71378,0.36148 -7.10596,-0.0803 z m 8.26116,-13.92058 c -0.45432,-1.89347 -1.55749,-3.20462 -3.37291,-4.00768 -3.05502,-1.35133 -7.03835,0.65751 -7.68169,3.87392 l -0.17854,0.89409 h 5.70781 5.70787 z m 13.02842,13.99862 c -0.60824,-0.1395 -1.76015,-0.44184 -2.55975,-0.67181 l -1.45377,-0.41806 0.0715,-15.82059 0.0715,-15.82053 2.14281,-0.0807 2.14273,-0.0807 v 6.124 c 0,5.72799 0.0307,6.11035 0.48374,5.91391 1.99976,-0.86812 3.47099,-1.2142 5.18415,-1.2196 3.08639,-0.009 5.30304,0.82087 7.25976,2.71978 2.0889,2.02722 3.10197,4.79205 3.10197,8.46602 0,5.84288 -2.60708,9.38253 -7.92556,10.76071 -1.85635,0.48124 -6.66648,0.55296 -8.51897,0.12722 z m 7.48415,-3.96723 c 2.54268,-0.75718 4.16275,-2.95904 4.45136,-6.04995 0.57201,-6.12566 -4.7498,-9.9705 -10.11399,-7.30709 l -1.26847,0.62987 -0.0741,6.14198 -0.0741,6.14194 1.31861,0.40535 c 1.7222,0.52945 4.05896,0.5448 5.76138,0.0395 z m 15.5374,4.00154 c -3.0659,-0.92313 -4.57428,-3.985 -3.37623,-6.85319 0.96516,-2.31039 2.71259,-3.49932 7.99566,-5.4403 l 3.87866,-1.42499 -0.0579,-1.21701 c -0.11231,-2.34807 -1.70185,-3.43383 -4.6204,-3.15544 -1.88219,0.17943 -3.91231,0.88905 -5.44355,1.90233 -0.58516,0.38736 -1.12878,0.70405 -1.2081,0.70405 -0.0794,0 -0.14389,-0.93059 -0.14389,-2.06806 v -2.06649 l 1.45153,-0.83043 c 3.27963,-1.87631 8.26975,-2.16462 11.23327,-0.649 1.23126,0.6297 1.65745,1.04105 2.22954,2.15164 0.68857,1.3369 0.71085,1.55278 0.84548,8.18289 0.10617,5.25043 0.22637,6.91574 0.52288,7.27265 0.41675,0.50156 1.22942,0.38956 1.98725,-0.2733 0.68589,-0.60025 0.80772,-0.46926 0.80772,0.8683 0,1.18581 -0.0658,1.29211 -1.2801,2.06209 -2.29784,1.45719 -5.13589,1.42153 -5.85455,-0.0733 -0.41851,-0.87053 -0.54626,-0.90049 -1.37274,-0.32112 -1.7534,1.22811 -5.55673,1.84477 -7.59413,1.23127 z m 5.78332,-3.18023 c 0.767,-0.22812 1.7268,-0.67545 2.1329,-0.9949 0.72778,-0.57249 0.73721,-0.62276 0.66013,-3.52582 -0.0917,-3.4602 0.0395,-3.38628 -3.48498,-1.92913 -2.77755,1.14761 -4.20013,2.50548 -4.18784,3.99745 0.009,1.34081 0.49115,1.98537 1.8377,2.46543 1.34735,0.48076 1.38051,0.48023 3.04209,-0.009 z m -400.543089,-7.604 v -10.78304 h 2.073634 2.073678 v 1.10594 c 0,0.60828 0.05791,1.10597 0.128536,1.10597 0.07063,0 0.877859,-0.48422 1.793269,-1.07575 1.953741,-1.26267 4.08537,-1.73281 6.39765,-1.41099 1.958698,0.27286 2.937236,0.78213 4.211405,2.19252 l 1.015519,1.124 1.590419,-1.23341 c 2.070959,-1.60608 3.592987,-2.14282 6.08491,-2.14576 3.396761,-0.004 5.82139,1.59371 6.852175,4.51515 0.318926,0.90475 0.404032,2.84998 0.404032,9.26676 v 8.12165 h -2.054113 -2.0542 l -0.08818,-7.67256 c -0.08247,-7.08398 -0.131167,-7.74456 -0.641625,-8.61132 -0.958708,-1.62766 -1.866836,-2.10526 -3.960475,-2.08276 -1.952118,0.0263 -2.933287,0.38649 -4.439303,1.65364 l -0.862592,0.72581 v 7.9936 7.99359 h -2.044591 -2.044681 l -0.102214,-7.53433 c -0.1202,-8.85856 -0.218905,-9.25978 -2.554436,-10.41739 -1.263378,-0.6261 -1.474431,-0.65071 -3.140743,-0.36499 -1.433589,0.24566 -2.039636,0.52068 -3.069412,1.39331 l -1.283031,1.08738 -0.07326,7.91814 -0.07326,7.9181 H 63.713473 61.644094 Z M 175.0864,249.08277 c 0.18293,-0.42597 3.38057,-7.82598 7.10622,-16.44431 l 6.77396,-15.66959 1.68833,-0.009 1.68825,-0.004 6.58497,14.99949 c 3.62172,8.2497 6.87297,15.65265 7.22493,16.45102 l 0.64004,1.45162 h -2.41892 -2.41893 l -2.08473,-4.76942 -2.08469,-4.76946 -7.03682,-0.0737 -7.03686,-0.0737 -2.07307,4.83891 -2.0731,4.8389 -2.40595,0.004 -2.40589,0.004 z m 20.46708,-13.25698 c 0.1667,-0.28252 -4.70125,-11.27823 -4.96832,-11.22247 -0.24917,0.0518 -4.79819,10.55136 -4.79819,11.07494 0,0.27506 1.08154,0.35446 4.82219,0.35446 2.65226,0 4.8772,-0.0934 4.94432,-0.2075 z m 13.182,-2.41932 v -16.45102 h 2.07364 2.07367 v 16.45102 16.45106 h -2.07367 -2.07364 z m 63.86876,0 v -16.45102 h 4.91493 c 7.84616,0 10.57015,0.51892 13.05514,2.4871 2.92105,2.31346 3.84514,7.41589 2.0374,11.24936 -1.69755,3.59979 -5.44399,5.05575 -13.02614,5.06246 l -2.55751,0.002 v 7.05042 7.0505 h -2.21191 -2.21191 z m 13.28435,-2.41406 c 2.03648,-0.85947 2.95189,-2.73456 2.686,-5.50198 -0.16714,-1.73668 -0.84359,-2.68481 -2.51438,-3.52244 -1.17104,-0.58723 -1.70281,-0.65922 -5.10063,-0.69129 l -3.79329,-0.0395 -0.0759,4.82886 c -0.0395,2.65586 -0.004,5.006 0.0755,5.22258 0.20926,0.54617 7.29538,0.30225 8.72296,-0.30006 z m 30.95374,8.09371 v -10.79467 h 2.21191 2.21191 l 0.009,2.14278 0.009,2.14281 0.61069,-0.82951 c 3.0152,-4.09559 5.4815,-4.88944 8.98109,-2.89074 0.79762,0.4558 1.44995,0.9191 1.44956,1.03013 -6.2e-4,0.17153 -1.82482,3.3396 -2.08044,3.61308 -0.05,0.0513 -0.62592,-0.21891 -1.28413,-0.60153 -2.90429,-1.68658 -5.27886,-0.94717 -6.95921,2.16694 -0.55209,1.02311 -0.60715,1.61345 -0.73507,7.87993 l -0.13818,6.77396 -2.14277,0.0807 -2.14282,0.0807 z m -53.67909,-45.12494 c -0.55441,-0.96349 -4.62869,-8.03501 -9.05382,-15.71446 l -8.04571,-13.96265 -10e-4,-79.006441 -0.001,-79.0065237 h 94.42071 94.42067 v 94.3867547 94.3867 l -40.71285,0.1689 c -22.39212,0.0926 -60.80667,0.24347 -85.36574,0.33428 l -44.65283,0.16538 z m 51.05245,-73.78724 c 3.11043,-0.35314 6.01099,-1.14866 8.7785,-2.40888 l 2.14277,-0.97568 v -3.11223 -3.11223 l -3.11048,1.56743 c -4.26532,2.14944 -6.37058,2.66701 -10.7139,2.63419 -3.82654,-0.0307 -5.56581,-0.47373 -8.02733,-2.05341 -6.19682,-3.97648 -8.38192,-11.83852 -5.14704,-18.518816 1.63153,-3.369343 5.32545,-6.315177 9.17678,-7.318281 4.06993,-1.06009 10.06938,-0.239085 14.94492,2.045997 1.32036,0.618726 2.44564,1.125015 2.50061,1.125015 0.0553,0 0.10046,-1.359581 0.10046,-3.021332 v -3.021244 l -2.22362,-0.857547 c -4.07998,-1.573399 -6.61213,-2.04569 -10.90956,-2.034811 -4.46352,0.0088 -6.86696,0.523662 -10.12334,2.157907 -5.0436,2.531186 -8.35389,6.361063 -10.09228,11.676207 -0.67931,2.077144 -0.79394,2.86687 -0.79337,5.469125 7e-4,3.70121 0.36718,5.30058 1.99476,8.70932 1.0632,2.22669 1.61705,2.98834 3.63677,5.00183 3.48086,3.47015 7.41672,5.4349 12.05966,6.02025 2.71636,0.34261 3.01405,0.34393 5.80621,0.0263 z m 19.78755,-6.00335 2.36286,-5.46062 8.03369,-0.0733 8.03365,-0.0728 0.74963,1.73216 c 0.41237,0.9527 1.5008,3.44296 2.41906,5.53387 l 1.66956,3.80167 h 2.87209 c 1.57963,0 2.87209,-0.0518 2.87209,-0.11537 0,-0.0632 -3.6834,-8.49287 -8.18531,-18.73207 -4.5019,-10.239281 -8.24781,-18.772377 -8.32419,-18.962461 -0.0934,-0.232066 -0.79705,-0.345686 -2.1372,-0.345686 h -1.99831 l -8.05164,18.593837 c -4.42838,10.22661 -8.1327,18.81155 -8.23176,19.07766 -0.16451,0.44132 0.0719,0.4837 2.68635,0.4837 h 2.86657 z m 5.89403,-13.68619 c 2.72737,-6.490917 4.13837,-9.757564 4.29445,-9.942032 0.12547,-0.148715 4.31985,9.024383 5.61293,12.276862 0.18732,0.47128 -0.11538,0.49918 -5.44991,0.49918 h -5.64829 z m 31.41322,10.9904 v -8.15639 h 4.50397 c 6.14628,0 8.63693,-0.67211 11.35434,-3.0641 4.10353,-3.612073 4.13569,-11.655593 0.0619,-15.410938 -2.91259,-2.68477 -4.75231,-3.116045 -14.05359,-3.294415 l -7.39602,-0.142135 v 19.112098 19.11206 h 2.76487 2.76492 z m 0,-18.935349 v -5.867145 l 4.50077,0.09739 c 4.16718,0.09037 4.60126,0.149154 5.85666,0.795517 1.84714,0.9509 2.63748,2.435727 2.63748,4.954937 0,2.562552 -0.77784,4.048739 -2.60485,4.977003 -1.251,0.635527 -1.72452,0.700015 -5.87539,0.800255 l -4.51467,0.109233 z M 246.06138,183.17739 c 0,-6.56426 0.0447,-11.88322 0.10266,-11.81983 0.0562,0.0632 1.59796,2.72798 3.42558,5.92145 1.82762,3.19343 4.88698,8.51239 6.79861,11.81984 l 3.47559,6.01367 h -6.90122 -6.90117 z M 46.250181,194.35218 c 0.261897,-0.44382 48.05384,-83.32014 55.087019,-95.526637 4.09616,-7.109246 7.5099,-12.920283 7.58592,-12.913527 0.26278,0.02193 12.85668,22.178664 12.77157,22.467184 -0.0447,0.15925 -6.80857,11.93183 -15.02607,26.16164 -8.217462,14.22982 -19.376851,33.5549 -24.798684,42.94458 l -9.857846,17.07211 -12.942129,10e-4 c -7.118152,5.3e-4 -12.887119,-0.0926 -12.81978,-0.20662 z m 29.49453,0.0913 c 0,-0.0636 4.551651,-7.99535 10.114786,-17.62609 5.563134,-9.63065 16.349903,-28.30687 23.970443,-41.50265 11.27353,-19.52122 13.90649,-23.90086 14.12843,-23.50148 0.15003,0.27023 3.00593,5.21881 6.34628,10.99742 3.34034,5.77858 6.0739,10.63095 6.07442,10.783 5.7e-4,0.15222 -3.45164,6.24867 -7.67151,13.54796 -4.21987,7.29928 -12.10845,20.95389 -17.53011,30.34356 l -9.85758,17.07212 -12.787623,0.001 c -7.033134,5.7e-4 -12.787536,-0.0509 -12.787536,-0.1145 z m 29.307739,0.003 c 0,-0.0654 4.55257,-7.9982 10.1168,-17.62885 5.56428,-9.63074 13.04505,-22.58555 16.62404,-28.78864 3.57886,-6.20305 6.53943,-11.24208 6.579,-11.19777 0.0395,0.0447 2.89675,4.97696 6.34927,10.96158 3.6544,6.33457 6.22222,11.07108 6.14553,11.33601 -0.0724,0.25049 -4.66382,8.29335 -10.20305,17.87368 l -10.07131,17.41877 -12.77012,0.0719 c -7.02361,0.0395 -12.77016,0.0219 -12.77016,-0.0447 z m 32.22242,-5.34761 c 1.73418,-3.00334 5.92479,-10.27859 9.31243,-16.16714 3.38763,-5.88855 6.23003,-10.70982 6.31645,-10.7139 0.0869,-0.004 4.12323,6.86674 8.9706,15.26853 4.84741,8.40176 9.05039,15.68034 9.33993,16.17456 l 0.52642,0.89861 h -18.80949 -18.80945 z m 27.88481,-12.16552 c -5.59718,-9.69434 -10.17782,-17.81534 -10.17901,-18.0467 -0.003,-0.61543 12.64009,-22.42161 12.86005,-22.17971 0.10266,0.11274 3.45349,5.86591 7.44669,12.78499 3.99324,6.91916 11.42497,19.79654 16.51502,28.61654 5.09001,8.81995 9.30988,16.12963 9.37757,16.24365 0.0671,0.11406 -5.71952,0.2075 -12.86031,0.2075 H 175.3365 Z m 30.69197,1.9355 c -4.98626,-8.62992 -12.91559,-22.34721 -17.62087,-30.4829 -4.70523,-8.13564 -8.5588,-14.91794 -8.56367,-15.07174 -0.009,-0.20881 12.30099,-21.79055 12.65475,-22.19051 0.0395,-0.0395 6.47968,11.03235 14.31851,24.60751 21.19605,36.70669 32.5349,56.33543 33.30419,57.65325 l 0.68602,1.17507 h -12.85655 -12.85654 z m 28.20312,-1.91391 c -4.72831,-8.18553 -15.604,-27.01371 -24.16828,-41.84035 -8.56429,-14.82674 -15.56847,-27.08206 -15.565,-27.23411 0.009,-0.28427 12.12125,-21.387484 12.50958,-21.791033 0.11932,-0.12371 8.25922,13.705444 18.0893,30.731503 l 17.87285,30.95632 -0.0706,22.03021 -0.0706,22.03026 z M 44.225066,98.950613 V 6.5482684 h 94.282474 94.28239 V 73.919207 c 0,37.054043 -0.0772,67.293863 -0.17109,67.199723 -0.0943,-0.0943 -8.08818,-13.88421 -17.76432,-30.64455 -9.67627,-16.760298 -17.71755,-30.509438 -17.86965,-30.553658 -0.15222,-0.04475 -3.49774,5.523609 -7.43475,12.37302 -4.90058,8.525728 -7.23164,12.337308 -7.39084,12.085018 -0.1281,-0.20267 -3.37399,-5.812657 -7.21348,-12.466676 -3.83953,-6.65402 -7.0899,-12.061946 -7.22304,-12.017551 -0.13292,0.04475 -3.38325,5.526153 -7.22238,12.181664 -3.83923,6.655511 -7.09622,12.216713 -7.2377,12.358233 -0.15837,0.15881 -3.00593,-4.508179 -7.43199,-12.181486 -3.94608,-6.841295 -7.28301,-12.402587 -7.4154,-12.358455 -0.13249,0.04475 -3.49073,5.712683 -7.46301,12.596882 -5.51891,9.564669 -7.28919,12.425089 -7.50604,12.128149 -0.15617,-0.21408 -3.45353,-5.882548 -7.3278,-12.597413 -3.87423,-6.714778 -7.14877,-12.173856 -7.27678,-12.131215 -0.20092,0.06712 -18.629457,31.923238 -54.579106,94.347398 -5.254473,9.12414 -9.662498,16.70752 -9.795508,16.85198 -0.138187,0.15003 -0.241717,-39.33145 -0.241717,-92.139657 z M 157.62495,73.888938 c 1.01043,-0.214519 2.32176,-0.636668 2.91421,-0.938924 1.44389,-0.736645 3.25006,-2.527282 3.96736,-3.933321 1.32957,-2.606201 1.36335,-3.290423 1.36849,-27.700076 l 0.004,-22.879377 h -3.04142 -3.04143 l -0.004,21.358708 c -0.003,12.492431 -0.11801,22.138522 -0.27726,23.237216 -0.54827,3.791712 -1.62898,4.773233 -5.80024,5.268073 -1.29255,0.153102 -2.38817,0.304888 -2.43472,0.336912 -0.0754,0.05177 0.22505,1.33642 1.0797,4.612542 l 0.27023,1.036839 1.57915,-0.0037 c 0.86851,-0.0032 2.40585,-0.179862 3.41615,-0.393942 z M 81.786585,60.044866 c 5.073778,-1.7122 8.591091,-5.054739 10.123823,-9.620735 l 0.700058,-2.085392 V 33.387945 18.43724 h -3.027693 -3.027649 l -0.09081,14.446521 c -0.103092,16.358676 -0.04475,15.904853 -2.323994,18.43889 -2.342375,2.605237 -4.981565,3.634092 -9.322208,3.634092 -4.457026,0 -7.639532,-1.302246 -9.961464,-4.076026 C 63.178405,48.875781 63.185995,48.9497 63.03048,33.091085 L 62.888345,18.575514 h -3.04138 -3.041336 l -0.0794,13.409682 c -0.08774,14.941845 0.05791,17.113176 1.335059,19.865987 1.168884,2.519955 4.130116,5.4954 6.906748,6.939956 3.389567,1.763438 5.724177,2.236081 10.499954,2.125707 3.519681,-0.08116 4.290983,-0.18732 6.318335,-0.87198 z m 65.112005,-0.358409 c 2.75233,-1.363793 4.53748,-3.176408 5.49799,-5.582261 0.79174,-1.983308 0.86207,-6.27258 0.14126,-8.611752 -0.93849,-3.045285 -3.8326,-5.945758 -9.32984,-9.350372 -3.28236,-2.032836 -5.64263,-3.936172 -6.8599,-5.532075 -0.85505,-1.121111 -0.92927,-1.366074 -0.81872,-2.699949 0.0943,-1.14015 0.30138,-1.658065 0.92791,-2.325134 2.58444,-2.751144 7.48038,-2.530879 12.12577,0.545552 1.07352,0.710894 2.11106,1.394107 2.30562,1.518255 0.28207,0.179863 0.33823,-0.513396 0.27637,-3.430101 l -0.0772,-3.655805 -1.79708,-0.905672 c -2.45552,-1.237495 -4.77582,-1.773484 -7.66024,-1.769623 -6.47302,0.0088 -10.97001,3.294327 -12.13117,8.863426 -0.3277,1.570767 -0.35929,2.40945 -0.1417,3.805136 0.63952,4.106954 2.35944,6.013536 10.26969,11.384393 2.73451,1.856703 5.33958,3.821894 5.78901,4.367095 1.09273,1.325671 1.57621,3.466732 1.11133,4.92186 -0.98749,3.092005 -4.92432,4.497868 -9.14502,3.265857 -2.18734,-0.638467 -3.73455,-1.619856 -5.99472,-3.802241 l -2.00449,-1.935579 v 4.192278 4.192366 l 1.17502,0.865619 c 2.9529,2.175366 6.02911,3.021376 10.62024,2.920697 3.33381,-0.07326 3.38242,-0.08379 5.71992,-1.24197 z m -39.63423,-8.485366 v -9.262415 h 8.57113 8.57108 v -2.903105 -2.90315 h -8.57108 -8.57113 V 30.187935 24.24345 h 8.85728 8.85729 l -0.0794,-2.833967 -0.0794,-2.833969 h -11.88898 -11.88897 l -0.0706,20.943973 -0.0706,20.943931 h 3.18137 3.18132 z m 39.2613,93.529469 c -3.42155,-5.95287 -6.22095,-10.95628 -6.22095,-11.11877 0,-0.37815 12.62474,-22.27732 12.83637,-22.2664 0.25444,0.009 12.60407,21.65276 12.56534,22.01758 -0.0447,0.43035 -12.61733,22.21568 -12.81175,22.20169 -0.0812,-0.004 -2.94746,-4.88124 -6.36901,-10.8341 z m -14.6356,-25.39109 -6.41221,-11.09661 2.73132,-4.74296 c 10.04828,-17.448425 10.14018,-17.599992 10.46341,-17.252288 0.17547,0.189075 2.96842,4.94748 6.20563,10.573961 3.23734,5.626527 6.01086,10.433487 6.16348,10.682057 0.21847,0.35621 -1.03561,2.73557 -5.90136,11.19781 -3.39839,5.91014 -6.32715,10.96826 -6.50842,11.24024 -0.28515,0.42772 -1.19459,-1.00249 -6.74185,-10.60221 z m 29.70212,0.24654 c -3.34438,-5.78089 -6.19173,-10.79269 -6.32755,-11.13745 -0.20837,-0.52958 0.73244,-2.32391 6.07579,-11.584435 4.87479,-8.448516 6.39559,-10.879287 6.64117,-10.615109 0.17547,0.188636 2.96706,4.946251 6.2044,10.572732 3.2373,5.626522 5.99968,10.416692 6.1387,10.644852 0.186,0.30577 -1.4192,3.31087 -6.10417,11.42699 -3.4963,6.05675 -6.39985,11.0552 -6.45227,11.10771 -0.0522,0.0522 -2.83177,-4.63439 -6.17607,-10.41529 z"
       id="path6" /></g></svg>
